<svg xmlns="http://www.w3.org/2000/svg" width="850" height="596" viewBox="0 0 850 596" role="img" aria-label="多轮对话中的意图与状态流转"><title>多轮对话中的意图与状态流转</title><defs><marker id="arrow-neutral" viewBox="0 0 10 10" refX="9" refY="5" markerWidth="7" markerHeight="7" orient="auto-start-reverse"><path d="M0,0 L10,5 L0,10 z" fill="#64748B"/></marker><marker id="arrow-primary" viewBox="0 0 10 10" refX="9" refY="5" markerWidth="7" markerHeight="7" orient="auto-start-reverse"><path d="M0,0 L10,5 L0,10 z" fill="#2563EB"/></marker><marker id="arrow-decision" viewBox="0 0 10 10" refX="9" refY="5" markerWidth="7" markerHeight="7" orient="auto-start-reverse"><path d="M0,0 L10,5 L0,10 z" fill="#D97706"/></marker><marker id="arrow-success" viewBox="0 0 10 10" refX="9" refY="5" markerWidth="7" markerHeight="7" orient="auto-start-reverse"><path d="M0,0 L10,5 L0,10 z" fill="#059669"/></marker><marker id="arrow-danger" viewBox="0 0 10 10" refX="9" refY="5" markerWidth="7" markerHeight="7" orient="auto-start-reverse"><path d="M0,0 L10,5 L0,10 z" fill="#DC2626"/></marker><marker id="arrow-field" viewBox="0 0 10 10" refX="9" refY="5" markerWidth="7" markerHeight="7" orient="auto-start-reverse"><path d="M0,0 L10,5 L0,10 z" fill="#64748B"/></marker></defs><rect x="0" y="0" width="850" height="596" fill="#FFFFFF"/><path d="M380.0,72.0 L380.0,100.0" fill="none" stroke="#64748B" stroke-width="1.7" stroke-linejoin="round" stroke-linecap="round" marker-end="url(#arrow-neutral)"/><path d="M550.0,124.0 L590.0,124.0 Q600.0,124.0 600.0,134.0 L600.0,252.0 Q600.0,262.0 610.0,262.0 L630.0,262.0" fill="none" stroke="#64748B" stroke-width="1.7" stroke-linejoin="round" stroke-linecap="round" marker-end="url(#arrow-neutral)"/><rect x="602.0" y="141.0" width="99.5" height="18" rx="4" fill="#FFFFFF" stroke="none"/><text x="608.0" y="154.5" font-family="'PingFang SC','Microsoft YaHei','Hiragino Sans GB',ui-sans-serif,sans-serif" font-size="12.5" fill="#475569" text-anchor="start">否（判不出来）</text><path d="M380.0,148.0 L380.0,176.0" fill="none" stroke="#64748B" stroke-width="1.7" stroke-linejoin="round" stroke-linecap="round" marker-end="url(#arrow-neutral)"/><rect x="353.5" y="153.0" width="24.5" height="18" rx="4" fill="#FFFFFF" stroke="none"/><text x="372.0" y="166.5" font-family="'PingFang SC','Microsoft YaHei','Hiragino Sans GB',ui-sans-serif,sans-serif" font-size="12.5" fill="#475569" text-anchor="end">是</text><path d="M380.0,224.0 L380.0,252.0" fill="none" stroke="#64748B" stroke-width="1.7" stroke-linejoin="round" stroke-linecap="round" marker-end="url(#arrow-neutral)"/><rect x="278.5" y="229.0" width="99.5" height="18" rx="4" fill="#FFFFFF" stroke="none"/><text x="372.0" y="242.5" font-family="'PingFang SC','Microsoft YaHei','Hiragino Sans GB',ui-sans-serif,sans-serif" font-size="12.5" fill="#475569" text-anchor="end">是（疑似切换）</text><path d="M210.0,200.0 L180.0,200.0 Q170.0,200.0 170.0,210.0 L170.0,378.0 Q170.0,388.0 180.0,388.0 L210.0,388.0" fill="none" stroke="#64748B" stroke-width="1.7" stroke-linejoin="round" stroke-linecap="round" marker-end="url(#arrow-neutral)"/><rect x="31.0" y="291.0" width="137.0" height="18" rx="4" fill="#FFFFFF" stroke="none"/><text x="162.0" y="304.5" font-family="'PingFang SC','Microsoft YaHei','Hiragino Sans GB',ui-sans-serif,sans-serif" font-size="12.5" fill="#475569" text-anchor="end">否（同一件事的补充）</text><path d="M380.0,300.0 L380.0,356.0" fill="none" stroke="#64748B" stroke-width="1.7" stroke-linejoin="round" stroke-linecap="round" marker-end="url(#arrow-neutral)"/><rect x="278.5" y="319.0" width="99.5" height="18" rx="4" fill="#FFFFFF" stroke="none"/><text x="372.0" y="332.5" font-family="'PingFang SC','Microsoft YaHei','Hiragino Sans GB',ui-sans-serif,sans-serif" font-size="12.5" fill="#475569" text-anchor="end">是（执行切换）</text><path d="M550.0,276.0 L593.0,276.0 Q600.0,276.0 600.0,283.0 L600.0,283.0 Q600.0,290.0 607.0,290.0 L630.0,290.0" fill="none" stroke="#64748B" stroke-width="1.7" stroke-linejoin="round" stroke-linecap="round" marker-end="url(#arrow-neutral)"/><rect x="602.0" y="321.0" width="112.0" height="18" rx="4" fill="#FFFFFF" stroke="none"/><text x="608.0" y="334.5" font-family="'PingFang SC','Microsoft YaHei','Hiragino Sans GB',ui-sans-serif,sans-serif" font-size="12.5" fill="#475569" text-anchor="start">否（置信度不足）</text><path d="M730.0,308.0 L730.0,378.0 Q730.0,388.0 720.0,388.0 L550.0,388.0" fill="none" stroke="#64748B" stroke-width="1.7" stroke-linejoin="round" stroke-linecap="round" stroke-dasharray="6 4" marker-end="url(#arrow-neutral)"/><rect x="637.8" y="421.0" width="124.5" height="18" rx="4" fill="#FFFFFF" stroke="none"/><text x="700.0" y="434.5" font-family="'PingFang SC','Microsoft YaHei','Hiragino Sans GB',ui-sans-serif,sans-serif" font-size="12.5" fill="#475569" text-anchor="middle">仍要更新槽位与约束</text><path d="M380.0,420.0 L380.0,448.0" fill="none" stroke="#64748B" stroke-width="1.7" stroke-linejoin="round" stroke-linecap="round" marker-end="url(#arrow-neutral)"/><path d="M380.0,512.0 L380.0,532.0" fill="none" stroke="#64748B" stroke-width="1.7" stroke-linejoin="round" stroke-linecap="round" marker-end="url(#arrow-neutral)"/><rect x="210" y="24" width="340" height="48" rx="10" fill="#F1F5F9" stroke="#94A3B8" stroke-width="1.6"/><text x="380.0" y="52.6" font-family="'PingFang SC','Microsoft YaHei','Hiragino Sans GB',ui-sans-serif,sans-serif" font-size="16.0" font-weight="600" fill="#0F172A" text-anchor="middle">本轮识别结果</text><rect x="210" y="100" width="340" height="48" rx="10" fill="#FEF3C7" stroke="#D97706" stroke-width="1.6"/><text x="380.0" y="128.6" font-family="'PingFang SC','Microsoft YaHei','Hiragino Sans GB',ui-sans-serif,sans-serif" font-size="16.0" font-weight="600" fill="#78350F" text-anchor="middle">判断：本轮意图明确？</text><rect x="210" y="176" width="340" height="48" rx="10" fill="#FEF3C7" stroke="#D97706" stroke-width="1.6"/><text x="380.0" y="204.6" font-family="'PingFang SC','Microsoft YaHei','Hiragino Sans GB',ui-sans-serif,sans-serif" font-size="16.0" font-weight="600" fill="#78350F" text-anchor="middle">判断：与上一轮意图不同？</text><rect x="210" y="252" width="340" height="48" rx="10" fill="#FEF3C7" stroke="#D97706" stroke-width="1.6"/><text x="380.0" y="280.6" font-family="'PingFang SC','Microsoft YaHei','Hiragino Sans GB',ui-sans-serif,sans-serif" font-size="16.0" font-weight="600" fill="#78350F" text-anchor="middle">判断：置信度 ≥ 0.80？</text><rect x="630" y="244" width="200" height="64" rx="10" fill="#F1F5F9" stroke="#94A3B8" stroke-width="1.6"/><text x="730.0" y="272.1" font-family="'PingFang SC','Microsoft YaHei','Hiragino Sans GB',ui-sans-serif,sans-serif" font-size="16.0" font-weight="600" fill="#0F172A" text-anchor="middle">沿用上一轮意图</text><text x="730.0" y="293.1" font-family="'PingFang SC','Microsoft YaHei','Hiragino Sans GB',ui-sans-serif,sans-serif" font-size="12.5" fill="#475569" text-anchor="middle">必要时先向用户确认</text><rect x="210" y="356" width="340" height="64" rx="10" fill="#F1F5F9" stroke="#94A3B8" stroke-width="1.6"/><text x="380.0" y="384.1" font-family="'PingFang SC','Microsoft YaHei','Hiragino Sans GB',ui-sans-serif,sans-serif" font-size="16.0" font-weight="600" fill="#0F172A" text-anchor="middle">槽位合并</text><text x="380.0" y="405.1" font-family="'PingFang SC','Microsoft YaHei','Hiragino Sans GB',ui-sans-serif,sans-serif" font-size="12.5" fill="#475569" text-anchor="middle">新值覆盖旧值，未提及的保留</text><rect x="210" y="448" width="340" height="64" rx="10" fill="#E0EDFF" stroke="#2563EB" stroke-width="1.6"/><text x="380.0" y="476.1" font-family="'PingFang SC','Microsoft YaHei','Hiragino Sans GB',ui-sans-serif,sans-serif" font-size="16.0" font-weight="600" fill="#1E3A8A" text-anchor="middle">约束累加</text><text x="380.0" y="497.1" font-family="'PingFang SC','Microsoft YaHei','Hiragino Sans GB',ui-sans-serif,sans-serif" font-size="12.5" fill="#475569" text-anchor="middle">硬约束只增不减</text><rect x="210" y="532" width="340" height="48" rx="10" fill="#DCFCE7" stroke="#059669" stroke-width="1.6"/><text x="380.0" y="560.6" font-family="'PingFang SC','Microsoft YaHei','Hiragino Sans GB',ui-sans-serif,sans-serif" font-size="16.0" font-weight="600" fill="#064E3B" text-anchor="middle">写回 DialogState</text></svg>